<svg width="103" height="32" viewBox="0 0 103 32" fill="none" xmlns="http://www.w3.org/2000/svg">
<g clip-path="url(#clip0_3_1838)">
<path d="M12.9662 30C15.5345 30 17.6189 27.9354 17.6189 25.3916V20.7832H12.9662C10.3979 20.7832 8.31348 22.8478 8.31348 25.3916C8.31348 27.9354 10.3979 30 12.9662 30Z" fill="#EFEEEA"/>
<path d="M8.31348 16.1749C8.31348 13.6311 10.3979 11.5665 12.9662 11.5665H17.6189V20.7833H12.9662C10.3979 20.7833 8.31348 18.7187 8.31348 16.1749Z" fill="#EFEEEA"/>
<path d="M8.31348 6.95811C8.31348 4.41428 10.3979 2.34973 12.9662 2.34973H17.6189V11.5665H12.9662C10.3979 11.5665 8.31348 9.50193 8.31348 6.95811Z" fill="#EFEEEA"/>
<path d="M17.6191 2.34973H22.2718C24.8401 2.34973 26.9245 4.41428 26.9245 6.95811C26.9245 9.50193 24.8401 11.5665 22.2718 11.5665H17.6191V2.34973Z" fill="#EFEEEA"/>
<path d="M26.9245 16.1749C26.9245 18.7187 24.8401 20.7833 22.2718 20.7833C19.7035 20.7833 17.6191 18.7187 17.6191 16.1749C17.6191 13.6311 19.7035 11.5665 22.2718 11.5665C24.8401 11.5665 26.9245 13.6311 26.9245 16.1749Z" fill="#EFEEEA"/>
</g>
<path d="M49.28 23V9H58.1V11.18H51.84V14.68H57.32V16.86H51.84V23H49.28ZM60.9245 11.8C60.4712 11.8 60.0779 11.64 59.7445 11.32C59.4245 10.9867 59.2645 10.5933 59.2645 10.14C59.2645 9.67333 59.4245 9.28 59.7445 8.96C60.0779 8.64 60.4712 8.48 60.9245 8.48C61.3912 8.48 61.7845 8.64 62.1045 8.96C62.4245 9.28 62.5845 9.67333 62.5845 10.14C62.5845 10.5933 62.4245 10.9867 62.1045 11.32C61.7845 11.64 61.3912 11.8 60.9245 11.8ZM59.6445 23V13.08H62.2045V23H59.6445ZM68.3581 27.64C67.4515 27.64 66.6381 27.54 65.9181 27.34C65.1981 27.14 64.6248 26.8133 64.1981 26.36C63.7848 25.92 63.5781 25.34 63.5781 24.62C63.5781 24.1533 63.6781 23.7467 63.8781 23.4C64.0781 23.0667 64.3848 22.7733 64.7981 22.52C64.4515 22.32 64.1915 22.0667 64.0181 21.76C63.8448 21.4533 63.7581 21.1 63.7581 20.7C63.7581 19.82 64.1715 19.14 64.9981 18.66C64.7048 18.3533 64.4781 18.0067 64.3181 17.62C64.1581 17.22 64.0781 16.8067 64.0781 16.38C64.0781 15.66 64.2515 15.04 64.5981 14.52C64.9448 13.9867 65.4248 13.5733 66.0381 13.28C66.6515 12.9867 67.3515 12.84 68.1381 12.84C68.7115 12.84 69.2381 12.92 69.7181 13.08H73.2781V15H71.8981C71.9781 15.2267 72.0448 15.4533 72.0981 15.68C72.1648 15.9067 72.1981 16.14 72.1981 16.38C72.1981 17.0733 72.0181 17.6867 71.6581 18.22C71.2981 18.7533 70.8115 19.1733 70.1981 19.48C69.5981 19.7733 68.9115 19.92 68.1381 19.92C67.8048 19.92 67.4981 19.8933 67.2181 19.84C66.9381 19.7733 66.6648 19.6733 66.3981 19.54C66.1048 19.6867 65.9581 19.92 65.9581 20.24C65.9581 20.8267 66.4448 21.12 67.4181 21.12H69.2381C70.0381 21.12 70.7181 21.2333 71.2781 21.46C71.8515 21.6733 72.2848 22.0133 72.5781 22.48C72.8715 22.9467 73.0181 23.54 73.0181 24.26C73.0181 24.9533 72.8115 25.5533 72.3981 26.06C71.9848 26.5667 71.4248 26.9533 70.7181 27.22C70.0115 27.5 69.2248 27.64 68.3581 27.64ZM68.3581 25.64C68.9981 25.64 69.5381 25.5333 69.9781 25.32C70.4315 25.12 70.6581 24.8133 70.6581 24.4C70.6581 23.6133 70.1115 23.22 69.0181 23.22H67.5781C67.0448 23.22 66.6315 23.32 66.3381 23.52C66.0581 23.72 65.9181 24.0133 65.9181 24.4C65.9181 24.7067 66.0315 24.9467 66.2581 25.12C66.4848 25.3067 66.7848 25.44 67.1581 25.52C67.5315 25.6 67.9315 25.64 68.3581 25.64ZM68.1181 17.92C68.6248 17.92 69.0381 17.78 69.3581 17.5C69.6915 17.2067 69.8581 16.8333 69.8581 16.38C69.8581 15.94 69.6915 15.5733 69.3581 15.28C69.0381 14.9867 68.6248 14.84 68.1181 14.84C67.6115 14.84 67.1981 14.9867 66.8781 15.28C66.5715 15.5733 66.4181 15.94 66.4181 16.38C66.4181 16.8333 66.5648 17.2067 66.8581 17.5C67.1648 17.78 67.5848 17.92 68.1181 17.92ZM74.525 23V13.08H77.065V14.22C77.3983 13.7533 77.825 13.4067 78.345 13.18C78.865 12.9533 79.4117 12.84 79.985 12.84C80.7317 12.84 81.425 13 82.065 13.32C82.7183 13.6267 83.225 14.1133 83.585 14.78C83.9183 14.1667 84.3783 13.6933 84.965 13.36C85.565 13.0133 86.2183 12.84 86.925 12.84C87.685 12.84 88.3717 13 88.985 13.32C89.6117 13.6267 90.105 14.1 90.465 14.74C90.825 15.38 91.005 16.18 91.005 17.14V23H88.465V17.5C88.465 16.7533 88.285 16.16 87.925 15.72C87.565 15.28 87.0117 15.06 86.265 15.06C85.5317 15.06 84.9783 15.28 84.605 15.72C84.2317 16.16 84.045 16.7533 84.045 17.5V23H81.505V17.5C81.505 16.74 81.3117 16.1467 80.925 15.72C80.5517 15.28 80.0117 15.06 79.305 15.06C78.705 15.06 78.1783 15.2533 77.725 15.64C77.285 16.0133 77.065 16.6333 77.065 17.5V23H74.525ZM95.69 23.24C95.1033 23.24 94.5567 23.12 94.05 22.88C93.5433 22.64 93.13 22.3 92.81 21.86C92.5033 21.4067 92.35 20.8733 92.35 20.26C92.35 19.5267 92.53 18.9267 92.89 18.46C93.25 17.9933 93.7433 17.6467 94.37 17.42C95.01 17.1933 95.7233 17.08 96.51 17.08H98.87C98.87 16.6267 98.7967 16.2467 98.65 15.94C98.5167 15.6333 98.31 15.4 98.03 15.24C97.7633 15.0667 97.43 14.98 97.03 14.98C96.5633 14.98 96.1433 15.0867 95.77 15.3C95.41 15.5 95.19 15.84 95.11 16.32H92.55C92.6167 15.6 92.8633 14.98 93.29 14.46C93.7167 13.94 94.2633 13.54 94.93 13.26C95.5967 12.98 96.31 12.84 97.07 12.84C98.0033 12.84 98.79 13.0133 99.43 13.36C100.083 13.7067 100.583 14.2 100.93 14.84C101.277 15.4667 101.45 16.2133 101.45 17.08V20.1C101.477 20.3933 101.583 20.5933 101.77 20.7C101.957 20.8067 102.203 20.86 102.51 20.86V23C101.883 23 101.357 22.94 100.93 22.82C100.517 22.7 100.177 22.5267 99.91 22.3C99.6433 22.06 99.4167 21.76 99.23 21.4C98.9233 21.92 98.4433 22.36 97.79 22.72C97.15 23.0667 96.45 23.24 95.69 23.24ZM96.43 21.18C96.87 21.18 97.27 21.08 97.63 20.88C98.0033 20.68 98.3033 20.4 98.53 20.04C98.7567 19.68 98.87 19.2667 98.87 18.8V18.72H96.67C96.3767 18.72 96.0967 18.7667 95.83 18.86C95.5633 18.94 95.35 19.0733 95.19 19.26C95.03 19.4333 94.95 19.6733 94.95 19.98C94.95 20.3933 95.09 20.7 95.37 20.9C95.6633 21.0867 96.0167 21.18 96.43 21.18Z" fill="#EFEEEA"/>
<defs>
<clipPath id="clip0_3_1838">
<rect width="18.6108" height="27.6503" fill="white" transform="translate(8.31348 2.34973)"/>
</clipPath>
</defs>
</svg>
