<svg width="105" height="32" viewBox="0 0 105 32" fill="none" xmlns="http://www.w3.org/2000/svg">
<g clip-path="url(#clip0_3_1776)">
<path d="M17.4999 16.0061C17.5004 17.0157 17.3182 18.0171 16.9623 18.9619C16.0172 19.3178 15.0156 19.5002 14.0057 19.5003H13.9939C12.9539 19.499 11.9575 19.3089 11.0381 18.9623C10.682 18.0174 10.4997 17.0159 10.5 16.0061V15.9939C10.4995 14.9845 10.6814 13.9833 11.037 13.0386C11.9821 12.682 12.9839 12.4995 13.994 12.5H14.0058C15.0158 12.4995 16.0175 12.6819 16.9624 13.0385C17.3184 13.9831 17.5005 14.9843 17.5 15.9938V16.006L17.4999 16.0061ZM27.8055 13.6667H19.6335L25.4116 7.88809C24.9581 7.251 24.4522 6.65287 23.8992 6.09992V6.09948C23.3462 5.54713 22.7482 5.04168 22.1115 4.58836L16.3329 10.367V2.19491C15.5643 2.06562 14.7863 2.00042 14.007 2L13.9926 2C13.1998 2.00044 12.4234 2.06781 11.6667 2.19491V10.367L5.88809 4.58836C5.25125 5.04156 4.65354 5.54737 4.10123 6.10047L4.09817 6.10266C3.54611 6.65491 3.04091 7.25212 2.58781 7.88809L8.36686 13.6667H0.194906C0.194906 13.6667 0 15.2016 0 15.9952V16.0048C0 16.7984 0.0672656 17.5762 0.194906 18.3333H8.36697L2.58792 24.1119C3.49701 25.3877 4.61234 26.503 5.88809 27.4121L11.6667 21.633V29.8055C12.4344 29.9342 13.2114 29.9992 13.9898 30H14.0096C14.788 29.9993 15.5651 29.9343 16.3328 29.8055V21.633L22.1119 27.4121C22.7485 26.9586 23.3463 26.453 23.8992 25.9005L23.9005 25.8992C24.4528 25.3462 24.9582 24.7484 25.4116 24.1119L19.6326 18.3333H27.8055C27.9327 17.5775 27.9991 16.802 28 16.0102V15.9898C27.9991 15.198 27.9327 14.4225 27.8055 13.6667Z" fill="#EFEEEA"/>
</g>
<path d="M48.86 23V21.04L55.28 11.16H48.92V9H58.26V10.96L51.8 20.82H58.3V23H48.86ZM62.897 23.24C62.3104 23.24 61.7637 23.12 61.257 22.88C60.7504 22.64 60.337 22.3 60.017 21.86C59.7104 21.4067 59.557 20.8733 59.557 20.26C59.557 19.5267 59.737 18.9267 60.097 18.46C60.457 17.9933 60.9504 17.6467 61.577 17.42C62.217 17.1933 62.9304 17.08 63.717 17.08H66.077C66.077 16.6267 66.0037 16.2467 65.857 15.94C65.7237 15.6333 65.517 15.4 65.237 15.24C64.9704 15.0667 64.637 14.98 64.237 14.98C63.7704 14.98 63.3504 15.0867 62.977 15.3C62.617 15.5 62.397 15.84 62.317 16.32H59.757C59.8237 15.6 60.0704 14.98 60.497 14.46C60.9237 13.94 61.4704 13.54 62.137 13.26C62.8037 12.98 63.517 12.84 64.277 12.84C65.2104 12.84 65.997 13.0133 66.637 13.36C67.2904 13.7067 67.7904 14.2 68.137 14.84C68.4837 15.4667 68.657 16.2133 68.657 17.08V20.1C68.6837 20.3933 68.7904 20.5933 68.977 20.7C69.1637 20.8067 69.4104 20.86 69.717 20.86V23C69.0904 23 68.5637 22.94 68.137 22.82C67.7237 22.7 67.3837 22.5267 67.117 22.3C66.8504 22.06 66.6237 21.76 66.437 21.4C66.1304 21.92 65.6504 22.36 64.997 22.72C64.357 23.0667 63.657 23.24 62.897 23.24ZM63.637 21.18C64.077 21.18 64.477 21.08 64.837 20.88C65.2104 20.68 65.5104 20.4 65.737 20.04C65.9637 19.68 66.077 19.2667 66.077 18.8V18.72H63.877C63.5837 18.72 63.3037 18.7667 63.037 18.86C62.7704 18.94 62.557 19.0733 62.397 19.26C62.237 19.4333 62.157 19.6733 62.157 19.98C62.157 20.3933 62.297 20.7 62.577 20.9C62.8704 21.0867 63.2237 21.18 63.637 21.18ZM70.9508 27.4V13.08H73.4908V14.46C73.8774 13.9267 74.3574 13.5267 74.9308 13.26C75.5174 12.98 76.1508 12.84 76.8308 12.84C77.7908 12.84 78.6108 13.0733 79.2908 13.54C79.9841 14.0067 80.5108 14.6333 80.8708 15.42C81.2441 16.1933 81.4308 17.0533 81.4308 18C81.4308 18.9467 81.2441 19.82 80.8708 20.62C80.4974 21.42 79.9641 22.06 79.2708 22.54C78.5908 23.0067 77.7774 23.24 76.8308 23.24C75.9908 23.24 75.2908 23.0667 74.7308 22.72C74.1841 22.3733 73.7774 22.0133 73.5108 21.64V27.4H70.9508ZM76.1508 21C76.6841 21 77.1508 20.8667 77.5508 20.6C77.9508 20.32 78.2641 19.9533 78.4908 19.5C78.7174 19.0467 78.8308 18.5467 78.8308 18C78.8308 17.3733 78.7041 16.8467 78.4508 16.42C78.2108 15.98 77.8841 15.6467 77.4708 15.42C77.0708 15.1933 76.6308 15.08 76.1508 15.08C75.6441 15.08 75.1908 15.2067 74.7908 15.46C74.3908 15.7133 74.0708 16.0667 73.8308 16.52C73.6041 16.96 73.4908 17.4667 73.4908 18.04C73.4908 18.5867 73.6041 19.0867 73.8308 19.54C74.0574 19.9933 74.3708 20.3533 74.7708 20.62C75.1708 20.8733 75.6308 21 76.1508 21ZM84.1863 11.8C83.7329 11.8 83.3396 11.64 83.0063 11.32C82.6863 10.9867 82.5263 10.5933 82.5263 10.14C82.5263 9.67333 82.6863 9.28 83.0063 8.96C83.3396 8.64 83.7329 8.48 84.1863 8.48C84.6529 8.48 85.0463 8.64 85.3663 8.96C85.6863 9.28 85.8463 9.67333 85.8463 10.14C85.8463 10.5933 85.6863 10.9867 85.3663 11.32C85.0463 11.64 84.6529 11.8 84.1863 11.8ZM82.9063 23V13.08H85.4663V23H82.9063ZM92.0775 23.24C91.0375 23.24 90.1375 23.0133 89.3775 22.56C88.6308 22.1067 88.0508 21.4867 87.6375 20.7C87.2242 19.9133 87.0175 19.0267 87.0175 18.04C87.0175 16.9867 87.2308 16.0733 87.6575 15.3C88.0842 14.5267 88.6775 13.9267 89.4375 13.5C90.1975 13.06 91.0775 12.84 92.0775 12.84C93.0642 12.84 93.9242 13.0533 94.6575 13.48C95.4042 13.9067 95.9842 14.4933 96.3975 15.24C96.8242 15.9867 97.0375 16.8467 97.0375 17.82C97.0375 17.9933 97.0308 18.1667 97.0175 18.34C97.0042 18.5 96.9842 18.6533 96.9575 18.8H89.5975C89.6375 19.2667 89.7575 19.68 89.9575 20.04C90.1708 20.3867 90.4508 20.66 90.7975 20.86C91.1575 21.0467 91.5642 21.14 92.0175 21.14C92.4842 21.14 92.8842 21.04 93.2175 20.84C93.5642 20.64 93.8375 20.3333 94.0375 19.92H96.7775C96.5908 20.5067 96.2908 21.0533 95.8775 21.56C95.4642 22.0667 94.9375 22.4733 94.2975 22.78C93.6708 23.0867 92.9308 23.24 92.0775 23.24ZM89.6175 17.1H94.3975C94.3842 16.4333 94.1375 15.9067 93.6575 15.52C93.1908 15.1333 92.6375 14.94 91.9975 14.94C91.4508 14.94 90.9442 15.1133 90.4775 15.46C90.0108 15.7933 89.7242 16.34 89.6175 17.1ZM98.3922 23V13.08H100.932V14.56C101.279 14 101.719 13.5733 102.252 13.28C102.786 12.9867 103.379 12.84 104.032 12.84V15.52H103.352C102.539 15.52 101.932 15.7133 101.532 16.1C101.132 16.4867 100.932 17.1333 100.932 18.04V23H98.3922Z" fill="#EFEEEA"/>
<defs>
<clipPath id="clip0_3_1776">
<rect width="28" height="28" fill="white" transform="translate(0 2)"/>
</clipPath>
</defs>
</svg>
