<svg width="106" height="32" viewBox="0 0 106 32" fill="none" xmlns="http://www.w3.org/2000/svg">
<g clip-path="url(#clip0_3_1828)">
<path d="M13.2493 2.00012L0 15.1964L4.1009 19.2809L21.4511 2.00012H13.2493Z" fill="#EFEEEA"/>
<path d="M13.1565 14.1694L6.0625 21.2351L10.1788 25.3962L14.2721 21.3193L21.4507 14.1694H13.1565Z" fill="#EFEEEA"/>
<path d="M10.1787 25.3963L13.2948 28.5H21.4505L14.2719 21.3193L10.1787 25.3963Z" fill="#EFEEEA"/>
<path d="M6.0166 21.281L10.1176 17.1964L14.2723 21.3193L10.1791 25.3962L6.0166 21.281Z" fill="#EFEEEA"/>
<path d="M10.1787 25.3963L13.5871 24.2698L13.9257 21.6642L10.1787 25.3963Z" fill="#EFEEEA"/>
</g>
<path d="M49.28 23V9H58.1V11.18H51.84V14.68H57.32V16.86H51.84V23H49.28ZM59.5445 23V9H62.1045V23H59.5445ZM67.7995 23.24C66.9462 23.24 66.2195 23.06 65.6195 22.7C65.0195 22.3267 64.5595 21.82 64.2395 21.18C63.9195 20.5267 63.7595 19.7867 63.7595 18.96V13.08H66.2995V18.58C66.2995 19.3133 66.4862 19.9133 66.8595 20.38C67.2462 20.8467 67.8062 21.08 68.5395 21.08C69.2995 21.08 69.8662 20.8533 70.2395 20.4C70.6129 19.9467 70.7995 19.34 70.7995 18.58V13.08H73.3595V23H70.7995V21.84C70.4662 22.2933 70.0262 22.64 69.4795 22.88C68.9462 23.12 68.3862 23.24 67.7995 23.24ZM79.05 23C77.9833 23 77.1767 22.74 76.63 22.22C76.0967 21.7 75.83 20.92 75.83 19.88V15.22H74.55V13.08H75.83V10.66H78.39V13.08H80.65V15.22H78.39V19.9C78.39 20.2733 78.49 20.5267 78.69 20.66C78.89 20.7933 79.15 20.86 79.47 20.86H80.65V23H79.05ZM86.0617 23C84.9951 23 84.1884 22.74 83.6417 22.22C83.1084 21.7 82.8417 20.92 82.8417 19.88V15.22H81.5617V13.08H82.8417V10.66H85.4017V13.08H87.6617V15.22H85.4017V19.9C85.4017 20.2733 85.5017 20.5267 85.7017 20.66C85.9017 20.7933 86.1617 20.86 86.4817 20.86H87.6617V23H86.0617ZM93.6595 23.24C92.6195 23.24 91.7195 23.0133 90.9595 22.56C90.2129 22.1067 89.6329 21.4867 89.2195 20.7C88.8062 19.9133 88.5995 19.0267 88.5995 18.04C88.5995 16.9867 88.8129 16.0733 89.2395 15.3C89.6662 14.5267 90.2595 13.9267 91.0195 13.5C91.7795 13.06 92.6595 12.84 93.6595 12.84C94.6462 12.84 95.5062 13.0533 96.2395 13.48C96.9862 13.9067 97.5662 14.4933 97.9795 15.24C98.4062 15.9867 98.6195 16.8467 98.6195 17.82C98.6195 17.9933 98.6129 18.1667 98.5995 18.34C98.5862 18.5 98.5662 18.6533 98.5395 18.8H91.1795C91.2195 19.2667 91.3395 19.68 91.5395 20.04C91.7529 20.3867 92.0329 20.66 92.3795 20.86C92.7395 21.0467 93.1462 21.14 93.5995 21.14C94.0662 21.14 94.4662 21.04 94.7995 20.84C95.1462 20.64 95.4195 20.3333 95.6195 19.92H98.3595C98.1729 20.5067 97.8729 21.0533 97.4595 21.56C97.0462 22.0667 96.5195 22.4733 95.8795 22.78C95.2529 23.0867 94.5129 23.24 93.6595 23.24ZM91.1995 17.1H95.9795C95.9662 16.4333 95.7195 15.9067 95.2395 15.52C94.7729 15.1333 94.2195 14.94 93.5795 14.94C93.0329 14.94 92.5262 15.1133 92.0595 15.46C91.5929 15.7933 91.3062 16.34 91.1995 17.1ZM99.9742 23V13.08H102.514V14.56C102.861 14 103.301 13.5733 103.834 13.28C104.368 12.9867 104.961 12.84 105.614 12.84V15.52H104.934C104.121 15.52 103.514 15.7133 103.114 16.1C102.714 16.4867 102.514 17.1333 102.514 18.04V23H99.9742Z" fill="#EFEEEA"/>
<defs>
<clipPath id="clip0_3_1828">
<rect width="26.5" height="26.5" fill="white" transform="translate(0 2)"/>
</clipPath>
</defs>
</svg>
