<svg width="122" height="32" viewBox="0 0 122 32" fill="none" xmlns="http://www.w3.org/2000/svg">
<path d="M14.2633 18.2542C15.6168 18.2542 16.7141 17.157 16.7141 15.8034C16.7141 14.4499 15.6168 13.3527 14.2633 13.3527C12.9097 13.3527 11.8125 14.4499 11.8125 15.8034C11.8125 17.157 12.9097 18.2542 14.2633 18.2542Z" fill="#EFEEEA"/>
<path d="M14.2624 21.4224C11.3167 21.4937 8.3784 21.0966 5.55727 20.246C4.25407 19.8329 3.0386 19.1821 1.97228 18.3266C1.56538 18.0343 1.22653 17.6575 0.978973 17.2219C0.731415 16.7864 0.581013 16.3024 0.538086 15.8033C0.538086 14.1828 2.31833 12.5947 5.30043 11.5556C8.19699 10.6348 11.2234 10.1886 14.2624 10.2341C17.2609 10.1922 20.2468 10.6304 23.1068 11.5321C24.3619 11.9322 25.5361 12.5515 26.5751 13.3613C26.9751 13.64 27.3088 14.0031 27.5528 14.4251C27.7967 14.8471 27.9449 15.3176 27.9868 15.8033C27.9868 17.4874 25.9967 19.1942 22.7911 20.2548C20.0246 21.0777 17.1483 21.4715 14.2624 21.4224ZM14.2624 11.4066C11.3549 11.3677 8.4598 11.7919 5.68569 12.6633C2.94083 13.6211 1.71054 14.9308 1.71054 15.8003C1.71054 16.71 3.03297 18.1403 5.93665 19.1334C8.63552 19.943 11.4456 20.3198 14.2624 20.2499C17.0234 20.2993 19.7756 19.9257 22.4235 19.1422C25.438 18.1433 26.8104 16.711 26.8104 15.8033C26.7609 15.4917 26.6474 15.1939 26.477 14.9285C26.3066 14.663 26.083 14.4358 25.8203 14.2612C24.8907 13.5428 23.8417 12.9939 22.7215 12.6398C19.9855 11.7808 17.1298 11.3645 14.2624 11.4066Z" fill="#EFEEEA"/>
<path d="M8.69486 28.0265C8.23755 28.037 7.78563 27.9261 7.38517 27.705C5.98137 26.8952 5.49513 24.5601 6.0843 21.4575C6.7339 18.4882 7.85945 15.6435 9.41735 13.0337C10.8787 10.4153 12.7496 8.04771 14.959 6.02052C15.9326 5.13305 17.0558 4.4251 18.2764 3.92952C18.7179 3.72261 19.1995 3.61536 19.6871 3.61536C20.1746 3.61536 20.6563 3.72261 21.0977 3.92952C22.5574 4.77062 23.0407 7.34688 22.3594 10.6535C21.6897 13.4616 20.5934 16.1505 19.1087 18.6263C17.6987 21.2137 15.8868 23.5607 13.7405 25.5797C12.7316 26.5019 11.5606 27.2295 10.2869 27.7256C9.77695 27.9148 9.2387 28.0166 8.69486 28.0265ZM10.433 13.616C8.9469 16.1151 7.86813 18.8348 7.23714 21.6731C6.69503 24.5307 7.21558 26.2492 7.97237 26.6864C8.75662 27.1403 10.6604 26.71 12.972 24.6905C15.0208 22.7563 16.7503 20.5097 18.096 18.0342C19.5184 15.6673 20.57 13.0965 21.2144 10.4113C21.8555 7.29884 21.3016 5.39312 20.5154 4.94022C20.2208 4.82731 19.9059 4.77677 19.5907 4.79179C19.2755 4.8068 18.9668 4.88705 18.6842 5.02746C17.5977 5.4758 16.5988 6.1123 15.7335 6.9077C13.6226 8.84948 11.8355 11.1161 10.4398 13.6218L10.433 13.616Z" fill="#EFEEEA"/>
<path d="M19.828 28.0392C18.4997 28.0392 16.8126 27.2354 15.0559 25.7247C12.8077 23.6791 10.9052 21.2833 9.42203 18.6302C7.88366 16.0563 6.76703 13.2528 6.11446 10.326C5.83146 9.03834 5.77902 7.71071 5.95957 6.40475C6.00132 5.92029 6.14884 5.45089 6.39173 5.02964C6.63462 4.60839 6.96697 4.24556 7.36534 3.96672C8.82306 3.12268 11.2964 3.99025 13.8207 6.23124C15.9191 8.21361 17.7011 10.5061 19.1046 13.0287C20.642 15.5426 21.7703 18.2847 22.4474 21.1525C22.7426 22.4874 22.7881 23.8654 22.5817 25.2169C22.5326 25.7153 22.3763 26.1972 22.1235 26.6295C21.8707 27.0618 21.5274 27.4344 21.1171 27.7216C20.7232 27.9399 20.2783 28.0495 19.828 28.0392ZM10.4367 18.0401C11.8595 20.5756 13.6769 22.8684 15.8205 24.8326C18.0252 26.7295 19.7741 27.1373 20.526 26.6952C21.3102 26.2394 21.8886 24.3787 21.2926 21.3682C20.6396 18.6301 19.5573 16.0127 18.086 13.613C16.7467 11.1986 15.0458 9.00342 13.0423 7.10371C10.666 4.99409 8.73875 4.52256 7.95353 4.97742C7.70879 5.17631 7.50794 5.42378 7.36368 5.70421C7.21941 5.98464 7.13486 6.29194 7.11536 6.6067C6.9595 7.77139 7.01027 8.95445 7.26535 10.1015C7.89304 12.9004 8.96397 15.5811 10.4376 18.042L10.4367 18.0401Z" fill="#EFEEEA"/>
<path d="M49.28 23V9H54.14C55.1133 9 55.9533 9.16 56.66 9.48C57.38 9.78667 57.94 10.24 58.34 10.84C58.74 11.44 58.94 12.1733 58.94 13.04C58.94 14.04 58.6733 14.84 58.14 15.44C57.6067 16.04 56.88 16.4533 55.96 16.68L59.86 23H56.84L53.4 17.1H51.84V23H49.28ZM51.84 14.92H54.08C54.68 14.92 55.14 14.84 55.46 14.68C55.7933 14.5067 56.02 14.28 56.14 14C56.2733 13.72 56.34 13.4 56.34 13.04C56.34 12.68 56.2733 12.36 56.14 12.08C56.02 11.8 55.7933 11.58 55.46 11.42C55.14 11.26 54.68 11.18 54.08 11.18H51.84V14.92ZM64.8314 23.24C63.7914 23.24 62.8914 23.0133 62.1314 22.56C61.3847 22.1067 60.8047 21.4867 60.3914 20.7C59.9781 19.9133 59.7714 19.0267 59.7714 18.04C59.7714 16.9867 59.9847 16.0733 60.4114 15.3C60.8381 14.5267 61.4314 13.9267 62.1914 13.5C62.9514 13.06 63.8314 12.84 64.8314 12.84C65.8181 12.84 66.6781 13.0533 67.4114 13.48C68.1581 13.9067 68.7381 14.4933 69.1514 15.24C69.5781 15.9867 69.7914 16.8467 69.7914 17.82C69.7914 17.9933 69.7847 18.1667 69.7714 18.34C69.7581 18.5 69.7381 18.6533 69.7114 18.8H62.3514C62.3914 19.2667 62.5114 19.68 62.7114 20.04C62.9247 20.3867 63.2047 20.66 63.5514 20.86C63.9114 21.0467 64.3181 21.14 64.7714 21.14C65.2381 21.14 65.6381 21.04 65.9714 20.84C66.3181 20.64 66.5914 20.3333 66.7914 19.92H69.5314C69.3447 20.5067 69.0447 21.0533 68.6314 21.56C68.2181 22.0667 67.6914 22.4733 67.0514 22.78C66.4247 23.0867 65.6847 23.24 64.8314 23.24ZM62.3714 17.1H67.1514C67.1381 16.4333 66.8914 15.9067 66.4114 15.52C65.9447 15.1333 65.3914 14.94 64.7514 14.94C64.2047 14.94 63.6981 15.1133 63.2314 15.46C62.7647 15.7933 62.4781 16.34 62.3714 17.1ZM74.1861 23.24C73.5994 23.24 73.0528 23.12 72.5461 22.88C72.0394 22.64 71.6261 22.3 71.3061 21.86C70.9994 21.4067 70.8461 20.8733 70.8461 20.26C70.8461 19.5267 71.0261 18.9267 71.3861 18.46C71.7461 17.9933 72.2394 17.6467 72.8661 17.42C73.5061 17.1933 74.2194 17.08 75.0061 17.08H77.3661C77.3661 16.6267 77.2928 16.2467 77.1461 15.94C77.0128 15.6333 76.8061 15.4 76.5261 15.24C76.2594 15.0667 75.9261 14.98 75.5261 14.98C75.0594 14.98 74.6394 15.0867 74.2661 15.3C73.9061 15.5 73.6861 15.84 73.6061 16.32H71.0461C71.1128 15.6 71.3594 14.98 71.7861 14.46C72.2128 13.94 72.7594 13.54 73.4261 13.26C74.0928 12.98 74.8061 12.84 75.5661 12.84C76.4994 12.84 77.2861 13.0133 77.9261 13.36C78.5794 13.7067 79.0794 14.2 79.4261 14.84C79.7728 15.4667 79.9461 16.2133 79.9461 17.08V20.1C79.9728 20.3933 80.0794 20.5933 80.2661 20.7C80.4528 20.8067 80.6994 20.86 81.0061 20.86V23C80.3794 23 79.8528 22.94 79.4261 22.82C79.0128 22.7 78.6728 22.5267 78.4061 22.3C78.1394 22.06 77.9128 21.76 77.7261 21.4C77.4194 21.92 76.9394 22.36 76.2861 22.72C75.6461 23.0667 74.9461 23.24 74.1861 23.24ZM74.9261 21.18C75.3661 21.18 75.7661 21.08 76.1261 20.88C76.4994 20.68 76.7994 20.4 77.0261 20.04C77.2528 19.68 77.3661 19.2667 77.3661 18.8V18.72H75.1661C74.8728 18.72 74.5928 18.7667 74.3261 18.86C74.0594 18.94 73.8461 19.0733 73.6861 19.26C73.5261 19.4333 73.4461 19.6733 73.4461 19.98C73.4461 20.3933 73.5861 20.7 73.8661 20.9C74.1594 21.0867 74.5128 21.18 74.9261 21.18ZM86.7436 23.24C85.7436 23.24 84.8703 23.02 84.1236 22.58C83.3769 22.1267 82.7969 21.5133 82.3836 20.74C81.9703 19.9533 81.7636 19.0533 81.7636 18.04C81.7636 17.04 81.9636 16.1467 82.3636 15.36C82.7769 14.5733 83.3569 13.96 84.1036 13.52C84.8503 13.0667 85.7303 12.84 86.7436 12.84C87.9436 12.84 88.9569 13.14 89.7836 13.74C90.6236 14.34 91.1903 15.2267 91.4836 16.4H88.7436C88.6236 16.0133 88.3903 15.6867 88.0436 15.42C87.7103 15.14 87.2703 15 86.7236 15C86.1769 15 85.7303 15.14 85.3836 15.42C85.0369 15.7 84.7769 16.0733 84.6036 16.54C84.4436 16.9933 84.3636 17.4933 84.3636 18.04C84.3636 18.5867 84.4436 19.0933 84.6036 19.56C84.7769 20.0133 85.0369 20.38 85.3836 20.66C85.7303 20.9267 86.1769 21.06 86.7236 21.06C87.2436 21.06 87.6703 20.9467 88.0036 20.72C88.3369 20.48 88.5836 20.1333 88.7436 19.68H91.4836C91.3103 20.4267 90.9969 21.0667 90.5436 21.6C90.1036 22.1333 89.5569 22.54 88.9036 22.82C88.2636 23.1 87.5436 23.24 86.7436 23.24ZM96.7258 23C95.6591 23 94.8524 22.74 94.3058 22.22C93.7724 21.7 93.5058 20.92 93.5058 19.88V15.22H92.2258V13.08H93.5058V10.66H96.0658V13.08H98.3258V15.22H96.0658V19.9C96.0658 20.2733 96.1658 20.5267 96.3658 20.66C96.5658 20.7933 96.8258 20.86 97.1458 20.86H98.3258V23H96.7258ZM103.878 23.24C102.518 23.24 101.424 22.86 100.598 22.1C99.7842 21.3267 99.3775 20.2333 99.3775 18.82H101.938C101.951 19.4733 102.104 19.9933 102.398 20.38C102.691 20.7667 103.164 20.96 103.818 20.96C104.431 20.96 104.878 20.78 105.158 20.42C105.438 20.0467 105.578 19.56 105.578 18.96V9H108.138V18.96C108.138 20.3333 107.751 21.3933 106.978 22.14C106.218 22.8733 105.184 23.24 103.878 23.24ZM115.486 23.24C114.512 23.24 113.626 23.0733 112.826 22.74C112.039 22.4067 111.412 21.9133 110.946 21.26C110.479 20.5933 110.232 19.7667 110.206 18.78H112.906C112.932 19.4333 113.166 19.98 113.606 20.42C114.059 20.86 114.679 21.08 115.466 21.08C116.146 21.08 116.686 20.92 117.086 20.6C117.486 20.28 117.686 19.8467 117.686 19.3C117.686 19.02 117.639 18.7733 117.546 18.56C117.466 18.3467 117.306 18.1467 117.066 17.96C116.826 17.7733 116.486 17.5933 116.046 17.42C115.619 17.2333 115.052 17.0267 114.346 16.8C113.426 16.4933 112.686 16.14 112.126 15.74C111.566 15.34 111.159 14.8933 110.906 14.4C110.666 13.8933 110.546 13.3467 110.546 12.76C110.546 11.88 110.752 11.1467 111.166 10.56C111.592 9.96 112.159 9.51333 112.866 9.22C113.586 8.91333 114.379 8.76 115.246 8.76C116.126 8.76 116.919 8.91333 117.626 9.22C118.346 9.52667 118.926 9.98 119.366 10.58C119.806 11.18 120.032 11.92 120.046 12.8H117.306C117.292 12.2933 117.092 11.8533 116.706 11.48C116.332 11.1067 115.812 10.92 115.146 10.92C114.612 10.92 114.159 11.06 113.786 11.34C113.412 11.62 113.226 12.0333 113.226 12.58C113.226 12.98 113.372 13.32 113.666 13.6C113.972 13.88 114.379 14.1267 114.886 14.34C115.406 14.54 115.979 14.7533 116.606 14.98C116.952 15.1 117.339 15.2533 117.766 15.44C118.206 15.6267 118.626 15.88 119.026 16.2C119.426 16.5067 119.752 16.9 120.006 17.38C120.272 17.8467 120.406 18.4267 120.406 19.12C120.406 19.9733 120.186 20.7067 119.746 21.32C119.319 21.9333 118.732 22.4067 117.986 22.74C117.252 23.0733 116.419 23.24 115.486 23.24Z" fill="#EFEEEA"/>
</svg>
