<svg width="126" height="32" viewBox="0 0 126 32" fill="none" xmlns="http://www.w3.org/2000/svg">
<path fill-rule="evenodd" clip-rule="evenodd" d="M27.6807 7.1333L18.8481 24.4H10.5518L14.2482 17.2439H14.0824C11.0329 21.2026 6.48296 23.8086 0 24.4V17.343C0 17.343 4.1473 17.098 6.58539 14.5347H0V7.13344H7.40127V13.2209L7.56739 13.2202L10.5918 7.13344H16.1892V13.1823L16.3553 13.182L19.4932 7.1333H27.6807Z" fill="#EFEEEA"/>
<path d="M53.22 23L48.36 9H50.98L54.76 20.58L56.26 15.9L53.84 9H56.42L57.98 13.9L59.52 9H62.12L59.68 15.9L61.18 20.58L64.96 9H67.58L62.72 23H59.68L57.98 17.92L56.26 23H53.22ZM71.5892 23.24C70.5492 23.24 69.6492 23.0133 68.8892 22.56C68.1426 22.1067 67.5626 21.4867 67.1492 20.7C66.7359 19.9133 66.5292 19.0267 66.5292 18.04C66.5292 16.9867 66.7426 16.0733 67.1692 15.3C67.5959 14.5267 68.1892 13.9267 68.9492 13.5C69.7092 13.06 70.5892 12.84 71.5892 12.84C72.5759 12.84 73.4359 13.0533 74.1692 13.48C74.9159 13.9067 75.4959 14.4933 75.9092 15.24C76.3359 15.9867 76.5492 16.8467 76.5492 17.82C76.5492 17.9933 76.5426 18.1667 76.5292 18.34C76.5159 18.5 76.4959 18.6533 76.4692 18.8H69.1092C69.1492 19.2667 69.2692 19.68 69.4692 20.04C69.6826 20.3867 69.9626 20.66 70.3092 20.86C70.6692 21.0467 71.0759 21.14 71.5292 21.14C71.9959 21.14 72.3959 21.04 72.7292 20.84C73.0759 20.64 73.3492 20.3333 73.5492 19.92H76.2892C76.1026 20.5067 75.8026 21.0533 75.3892 21.56C74.9759 22.0667 74.4492 22.4733 73.8092 22.78C73.1826 23.0867 72.4426 23.24 71.5892 23.24ZM69.1292 17.1H73.9092C73.8959 16.4333 73.6492 15.9067 73.1692 15.52C72.7026 15.1333 72.1492 14.94 71.5092 14.94C70.9626 14.94 70.4559 15.1133 69.9892 15.46C69.5226 15.7933 69.2359 16.34 69.1292 17.1ZM83.7839 23.24C83.1172 23.24 82.4906 23.1133 81.9039 22.86C81.3306 22.5933 80.8506 22.1867 80.4639 21.64V23H77.9039V9H80.4439V14.48C80.8172 13.9333 81.2972 13.5267 81.8839 13.26C82.4706 12.98 83.1039 12.84 83.7839 12.84C84.7306 12.84 85.5439 13.0733 86.2239 13.54C86.9172 13.9933 87.4506 14.6133 87.8239 15.4C88.1972 16.1733 88.3839 17.04 88.3839 18C88.3839 18.9467 88.1972 19.82 87.8239 20.62C87.4506 21.42 86.9172 22.06 86.2239 22.54C85.5439 23.0067 84.7306 23.24 83.7839 23.24ZM83.1039 21C83.6372 21 84.1039 20.8667 84.5039 20.6C84.9039 20.3333 85.2172 19.9733 85.4439 19.52C85.6706 19.0533 85.7839 18.5467 85.7839 18C85.7839 17.3733 85.6572 16.8467 85.4039 16.42C85.1639 15.98 84.8372 15.6467 84.4239 15.42C84.0239 15.1933 83.5839 15.08 83.1039 15.08C82.5839 15.08 82.1239 15.2067 81.7239 15.46C81.3372 15.7133 81.0306 16.0667 80.8039 16.52C80.5772 16.96 80.4639 17.4667 80.4639 18.04C80.4639 18.6267 80.5772 19.1467 80.8039 19.6C81.0439 20.04 81.3639 20.3867 81.7639 20.64C82.1639 20.88 82.6106 21 83.1039 21ZM90.117 23V15.22H88.957V13.08H90.117V12.32C90.117 11.12 90.417 10.2667 91.017 9.76C91.6304 9.25333 92.457 9 93.497 9H94.337V11.18H93.897C93.457 11.18 93.1437 11.2667 92.957 11.44C92.7704 11.6133 92.677 11.9067 92.677 12.32V13.08H94.457V15.22H92.677V23H90.117ZM96.017 23V9H98.577V23H96.017ZM105.146 23.24C104.146 23.24 103.253 23.0267 102.466 22.6C101.693 22.16 101.086 21.5467 100.646 20.76C100.206 19.9733 99.9863 19.0667 99.9863 18.04C99.9863 16.96 100.22 16.0333 100.686 15.26C101.166 14.4733 101.8 13.8733 102.586 13.46C103.386 13.0467 104.266 12.84 105.226 12.84C106.226 12.84 107.12 13.06 107.906 13.5C108.693 13.9267 109.313 14.5267 109.766 15.3C110.233 16.0733 110.466 16.9867 110.466 18.04C110.466 19.04 110.24 19.9333 109.786 20.72C109.333 21.5067 108.706 22.1267 107.906 22.58C107.12 23.02 106.2 23.24 105.146 23.24ZM105.186 21.02C105.72 21.02 106.18 20.8867 106.566 20.62C106.966 20.34 107.28 19.9733 107.506 19.52C107.733 19.0533 107.846 18.5467 107.846 18C107.846 17.3733 107.72 16.84 107.466 16.4C107.226 15.96 106.906 15.6267 106.506 15.4C106.106 15.1733 105.666 15.06 105.186 15.06C104.666 15.06 104.206 15.1867 103.806 15.44C103.42 15.6933 103.113 16.0467 102.886 16.5C102.673 16.94 102.566 17.4533 102.566 18.04C102.566 18.6267 102.68 19.1467 102.906 19.6C103.146 20.0533 103.466 20.4067 103.866 20.66C104.266 20.9 104.706 21.02 105.186 21.02ZM113.595 23L110.635 13.08H113.215L114.995 20.62L116.915 13.08H119.615L121.495 20.6L123.275 13.08H125.715L122.775 22.98H120.035L118.195 16.06L116.355 23H113.595Z" fill="#EFEEEA"/>
</svg>
