<svg width="97" height="32" viewBox="0 0 97 32" fill="none" xmlns="http://www.w3.org/2000/svg">
<mask id="mask0_3_1802" style="mask-type:luminance" maskUnits="userSpaceOnUse" x="20" y="6" width="7" height="20">
<path d="M21.605 6.84705H26.2961C26.6533 6.84705 26.9441 7.13782 26.9441 7.49505V24.8124C26.9441 25.1697 26.6533 25.4604 26.2961 25.4604H21.605C21.2478 25.4604 20.957 25.1697 20.957 24.8124V7.49505C20.957 7.13782 21.2478 6.84705 21.605 6.84705Z" fill="white"/>
</mask>
<g mask="url(#mask0_3_1802)">
<path d="M26.2287 4.9031L14.916 9.07434L21.6744 27.4036L32.9871 23.2324L26.2287 4.9031Z" fill="#EFEEEA"/>
</g>
<mask id="mask1_3_1802" style="mask-type:luminance" maskUnits="userSpaceOnUse" x="0" y="6" width="14" height="20">
<path d="M7.84512 7.07549L0.0691244 22.5486C-0.091491 22.8684 0.0372782 23.2575 0.357124 23.4181L4.54835 25.5241C4.8682 25.6847 5.25728 25.556 5.41789 25.2361L13.1939 9.76303C13.3545 9.44318 13.2257 9.05411 12.9059 8.89349L8.71466 6.78749C8.62051 6.74042 8.5222 6.71826 8.42389 6.71826C8.18712 6.71826 7.95866 6.84842 7.84512 7.07549Z" fill="white"/>
</mask>
<g mask="url(#mask1_3_1802)">
<path d="M11.2372 1.8217L-7.00195 9.70691L2.02447 30.5857L20.2636 22.7005L11.2372 1.8217Z" fill="#EFEEEA"/>
</g>
<mask id="mask2_3_1802" style="mask-type:luminance" maskUnits="userSpaceOnUse" x="11" y="6" width="10" height="20">
<path d="M14.3856 7.13089L11.0583 23.9969C10.9891 24.3472 11.2162 24.6864 11.5665 24.757L16.1648 25.6847C16.5165 25.7553 16.8599 25.5269 16.9291 25.1752L20.2563 8.30919C20.3256 7.95889 20.0985 7.61966 19.7482 7.54904L15.1499 6.62135C15.1069 6.61304 15.064 6.60889 15.0211 6.60889C14.7179 6.60889 14.4465 6.82212 14.3856 7.13089Z" fill="white"/>
</mask>
<g mask="url(#mask2_3_1802)">
<path d="M19.2107 3.58241L4.78125 8.89429L12.1036 28.785L26.533 23.4731L19.2107 3.58241Z" fill="#EFEEEA"/>
</g>
<path d="M49.28 23V9H52.32L56.3 18.04L60.22 9H63.26V23H60.7V13.56L57.28 21.22H55.26L51.84 13.56V23H49.28ZM68.2877 23.24C67.701 23.24 67.1543 23.12 66.6477 22.88C66.141 22.64 65.7277 22.3 65.4077 21.86C65.101 21.4067 64.9477 20.8733 64.9477 20.26C64.9477 19.5267 65.1277 18.9267 65.4877 18.46C65.8477 17.9933 66.341 17.6467 66.9677 17.42C67.6077 17.1933 68.321 17.08 69.1077 17.08H71.4677C71.4677 16.6267 71.3943 16.2467 71.2477 15.94C71.1143 15.6333 70.9077 15.4 70.6277 15.24C70.361 15.0667 70.0277 14.98 69.6277 14.98C69.161 14.98 68.741 15.0867 68.3677 15.3C68.0077 15.5 67.7877 15.84 67.7077 16.32H65.1477C65.2143 15.6 65.461 14.98 65.8877 14.46C66.3143 13.94 66.861 13.54 67.5277 13.26C68.1943 12.98 68.9077 12.84 69.6677 12.84C70.601 12.84 71.3877 13.0133 72.0277 13.36C72.681 13.7067 73.181 14.2 73.5277 14.84C73.8743 15.4667 74.0477 16.2133 74.0477 17.08V20.1C74.0743 20.3933 74.181 20.5933 74.3677 20.7C74.5543 20.8067 74.801 20.86 75.1077 20.86V23C74.481 23 73.9543 22.94 73.5277 22.82C73.1143 22.7 72.7743 22.5267 72.5077 22.3C72.241 22.06 72.0143 21.76 71.8277 21.4C71.521 21.92 71.041 22.36 70.3877 22.72C69.7477 23.0667 69.0477 23.24 68.2877 23.24ZM69.0277 21.18C69.4677 21.18 69.8677 21.08 70.2277 20.88C70.601 20.68 70.901 20.4 71.1277 20.04C71.3543 19.68 71.4677 19.2667 71.4677 18.8V18.72H69.2677C68.9743 18.72 68.6943 18.7667 68.4277 18.86C68.161 18.94 67.9477 19.0733 67.7877 19.26C67.6277 19.4333 67.5477 19.6733 67.5477 19.98C67.5477 20.3933 67.6877 20.7 67.9677 20.9C68.261 21.0867 68.6143 21.18 69.0277 21.18ZM76.3414 23V9H78.9014V17.28L82.2014 13.08H85.5014L81.1414 18.06L85.5614 23H82.2614L78.9014 18.78V23H76.3414ZM90.7298 23.24C89.6898 23.24 88.7898 23.0133 88.0298 22.56C87.2832 22.1067 86.7032 21.4867 86.2898 20.7C85.8765 19.9133 85.6698 19.0267 85.6698 18.04C85.6698 16.9867 85.8832 16.0733 86.3098 15.3C86.7365 14.5267 87.3298 13.9267 88.0898 13.5C88.8498 13.06 89.7298 12.84 90.7298 12.84C91.7165 12.84 92.5765 13.0533 93.3098 13.48C94.0565 13.9067 94.6365 14.4933 95.0498 15.24C95.4765 15.9867 95.6898 16.8467 95.6898 17.82C95.6898 17.9933 95.6832 18.1667 95.6698 18.34C95.6565 18.5 95.6365 18.6533 95.6098 18.8H88.2498C88.2898 19.2667 88.4098 19.68 88.6098 20.04C88.8232 20.3867 89.1032 20.66 89.4498 20.86C89.8098 21.0467 90.2165 21.14 90.6698 21.14C91.1365 21.14 91.5365 21.04 91.8698 20.84C92.2165 20.64 92.4898 20.3333 92.6898 19.92H95.4298C95.2432 20.5067 94.9432 21.0533 94.5298 21.56C94.1165 22.0667 93.5898 22.4733 92.9498 22.78C92.3232 23.0867 91.5832 23.24 90.7298 23.24ZM88.2698 17.1H93.0498C93.0365 16.4333 92.7898 15.9067 92.3098 15.52C91.8432 15.1333 91.2898 14.94 90.6498 14.94C90.1032 14.94 89.5965 15.1133 89.1298 15.46C88.6632 15.7933 88.3765 16.34 88.2698 17.1Z" fill="#EFEEEA"/>
</svg>
