<svg width="145" height="32" viewBox="0 0 145 32" fill="none" xmlns="http://www.w3.org/2000/svg">
<g clip-path="url(#clip0_3_1779)">
<path d="M1.5 16.026C1.5 13.6687 2.08067 11.4933 3.242 9.5C4.40333 7.50667 5.98067 5.92933 7.974 4.768C9.96733 3.60667 12.1427 3.026 14.5 3.026C16.8573 3.026 19.0327 3.60667 21.026 4.768C23.0193 5.92933 24.5967 7.50667 25.758 9.5C26.9193 11.4933 27.5 13.6687 27.5 16.026C27.5 18.3833 26.9193 20.5587 25.758 22.552C24.5967 24.5453 23.0193 26.1227 21.026 27.284C19.0327 28.4453 16.8573 29.026 14.5 29.026C12.1427 29.026 9.96733 28.4453 7.974 27.284C5.98067 26.1227 4.40333 24.5453 3.242 22.552C2.08067 20.5587 1.5 18.3833 1.5 16.026ZM2.514 16.026C2.514 18.366 3.13367 20.5067 4.373 22.448C5.61233 24.3893 7.246 25.8453 9.274 26.816L3.554 11.138C2.86067 12.6807 2.514 14.31 2.514 16.026ZM4.464 9.448H5.244C6.076 9.448 7.142 9.396 8.442 9.292C8.65 9.27467 8.80167 9.344 8.897 9.5C8.99233 9.656 9.00533 9.82067 8.936 9.994C8.86667 10.1673 8.728 10.2627 8.52 10.28L7.142 10.41L11.51 23.384L14.136 15.532L12.264 10.41C11.848 10.358 11.432 10.3147 11.016 10.28C10.808 10.2627 10.6693 10.1673 10.6 9.994C10.5307 9.82067 10.5437 9.656 10.639 9.5C10.7343 9.344 10.886 9.27467 11.094 9.292L14.24 9.448C15.0893 9.448 16.1553 9.396 17.438 9.292C17.646 9.27467 17.7977 9.344 17.893 9.5C17.9883 9.656 18.0013 9.82067 17.932 9.994C17.8627 10.1673 17.724 10.2627 17.516 10.28L16.164 10.41L20.48 23.306L21.676 19.302C22.3 17.274 22.612 15.9827 22.612 15.428C22.612 14.3187 22.274 13.2093 21.598 12.1C21.5633 12.048 21.455 11.866 21.273 11.554C21.091 11.242 20.974 11.0383 20.922 10.943C20.87 10.8477 20.792 10.683 20.688 10.449C20.584 10.215 20.5147 10.0113 20.48 9.838C20.4453 9.66467 20.428 9.48267 20.428 9.292C20.428 8.72 20.623 8.22167 21.013 7.797C21.403 7.37233 21.884 7.16 22.456 7.16C22.4733 7.16 22.4993 7.16433 22.534 7.173C22.5687 7.18167 22.5947 7.186 22.612 7.186C20.3413 5.08867 17.6373 4.04 14.5 4.04C12.4373 4.04 10.522 4.52533 8.754 5.496C6.986 6.46667 5.556 7.784 4.464 9.448ZM11.12 27.544C12.1947 27.856 13.3213 28.012 14.5 28.012C15.8867 28.012 17.2127 27.7867 18.478 27.336L18.4 27.18L14.708 17.066L11.12 27.544ZM20.532 26.4C22.352 25.3427 23.7993 23.891 24.874 22.045C25.9487 20.199 26.486 18.1927 26.486 16.026C26.486 13.946 26.0007 12.0307 25.03 10.28C25.082 10.644 25.108 11.0513 25.108 11.502C25.108 12.594 24.8047 14.024 24.198 15.792L20.532 26.4Z" fill="#EFEEEA"/>
</g>
<path d="M53.22 23L48.36 9H50.98L54.76 20.58L56.26 15.9L53.84 9H56.42L57.98 13.9L59.52 9H62.12L59.68 15.9L61.18 20.58L64.96 9H67.58L62.72 23H59.68L57.98 17.92L56.26 23H53.22ZM71.6892 23.24C70.6892 23.24 69.7959 23.0267 69.0092 22.6C68.2359 22.16 67.6292 21.5467 67.1892 20.76C66.7492 19.9733 66.5292 19.0667 66.5292 18.04C66.5292 16.96 66.7626 16.0333 67.2292 15.26C67.7092 14.4733 68.3426 13.8733 69.1292 13.46C69.9292 13.0467 70.8092 12.84 71.7692 12.84C72.7692 12.84 73.6626 13.06 74.4492 13.5C75.2359 13.9267 75.8559 14.5267 76.3092 15.3C76.7759 16.0733 77.0092 16.9867 77.0092 18.04C77.0092 19.04 76.7826 19.9333 76.3292 20.72C75.8759 21.5067 75.2492 22.1267 74.4492 22.58C73.6626 23.02 72.7426 23.24 71.6892 23.24ZM71.7292 21.02C72.2626 21.02 72.7226 20.8867 73.1092 20.62C73.5092 20.34 73.8226 19.9733 74.0492 19.52C74.2759 19.0533 74.3892 18.5467 74.3892 18C74.3892 17.3733 74.2626 16.84 74.0092 16.4C73.7692 15.96 73.4492 15.6267 73.0492 15.4C72.6492 15.1733 72.2092 15.06 71.7292 15.06C71.2092 15.06 70.7492 15.1867 70.3492 15.44C69.9626 15.6933 69.6559 16.0467 69.4292 16.5C69.2159 16.94 69.1092 17.4533 69.1092 18.04C69.1092 18.6267 69.2226 19.1467 69.4492 19.6C69.6892 20.0533 70.0092 20.4067 70.4092 20.66C70.8092 20.9 71.2492 21.02 71.7292 21.02ZM78.4898 23V13.08H81.0298V14.56C81.3765 14 81.8165 13.5733 82.3498 13.28C82.8832 12.9867 83.4765 12.84 84.1298 12.84V15.52H83.4498C82.6365 15.52 82.0298 15.7133 81.6298 16.1C81.2298 16.4867 81.0298 17.1333 81.0298 18.04V23H78.4898ZM89.4105 23.24C88.4505 23.24 87.6238 23.0067 86.9305 22.54C86.2505 22.06 85.7238 21.4267 85.3505 20.64C84.9905 19.84 84.8105 18.96 84.8105 18C84.8105 17.04 84.9971 16.1733 85.3705 15.4C85.7438 14.6133 86.2771 13.9933 86.9705 13.54C87.6638 13.0733 88.4771 12.84 89.4105 12.84C90.0505 12.84 90.6571 12.9733 91.2305 13.24C91.8171 13.5067 92.3105 13.8933 92.7105 14.4V9H95.2905V23H92.7105V21.58C92.3771 22.1267 91.9105 22.54 91.3105 22.82C90.7105 23.1 90.0771 23.24 89.4105 23.24ZM90.0705 21C90.6038 21 91.0638 20.8733 91.4505 20.62C91.8505 20.3667 92.1638 20.02 92.3905 19.58C92.6171 19.1267 92.7305 18.6133 92.7305 18.04C92.7305 17.3333 92.5905 16.7667 92.3105 16.34C92.0305 15.9 91.6838 15.58 91.2705 15.38C90.8571 15.18 90.4505 15.08 90.0505 15.08C89.5305 15.08 89.0705 15.2067 88.6705 15.46C88.2838 15.7133 87.9771 16.06 87.7505 16.5C87.5238 16.9267 87.4105 17.4267 87.4105 18C87.4105 18.56 87.5238 19.0667 87.7505 19.52C87.9771 19.9733 88.2905 20.3333 88.6905 20.6C89.0905 20.8667 89.5505 21 90.0705 21ZM97.0836 27.4V13.08H99.6236V14.46C100.01 13.9267 100.49 13.5267 101.064 13.26C101.65 12.98 102.284 12.84 102.964 12.84C103.924 12.84 104.744 13.0733 105.424 13.54C106.117 14.0067 106.644 14.6333 107.004 15.42C107.377 16.1933 107.564 17.0533 107.564 18C107.564 18.9467 107.377 19.82 107.004 20.62C106.63 21.42 106.097 22.06 105.404 22.54C104.724 23.0067 103.91 23.24 102.964 23.24C102.124 23.24 101.424 23.0667 100.864 22.72C100.317 22.3733 99.9103 22.0133 99.6436 21.64V27.4H97.0836ZM102.284 21C102.817 21 103.284 20.8667 103.684 20.6C104.084 20.32 104.397 19.9533 104.624 19.5C104.85 19.0467 104.964 18.5467 104.964 18C104.964 17.3733 104.837 16.8467 104.584 16.42C104.344 15.98 104.017 15.6467 103.604 15.42C103.204 15.1933 102.764 15.08 102.284 15.08C101.777 15.08 101.324 15.2067 100.924 15.46C100.524 15.7133 100.204 16.0667 99.9636 16.52C99.7369 16.96 99.6236 17.4667 99.6236 18.04C99.6236 18.5867 99.7369 19.0867 99.9636 19.54C100.19 19.9933 100.504 20.3533 100.904 20.62C101.304 20.8733 101.764 21 102.284 21ZM109.037 23V13.08H111.577V14.56C111.923 14 112.363 13.5733 112.897 13.28C113.43 12.9867 114.023 12.84 114.677 12.84V15.52H113.997C113.183 15.52 112.577 15.7133 112.177 16.1C111.777 16.4867 111.577 17.1333 111.577 18.04V23H109.037ZM120.417 23.24C119.377 23.24 118.477 23.0133 117.717 22.56C116.971 22.1067 116.391 21.4867 115.977 20.7C115.564 19.9133 115.357 19.0267 115.357 18.04C115.357 16.9867 115.571 16.0733 115.997 15.3C116.424 14.5267 117.017 13.9267 117.777 13.5C118.537 13.06 119.417 12.84 120.417 12.84C121.404 12.84 122.264 13.0533 122.997 13.48C123.744 13.9067 124.324 14.4933 124.737 15.24C125.164 15.9867 125.377 16.8467 125.377 17.82C125.377 17.9933 125.371 18.1667 125.357 18.34C125.344 18.5 125.324 18.6533 125.297 18.8H117.937C117.977 19.2667 118.097 19.68 118.297 20.04C118.511 20.3867 118.791 20.66 119.137 20.86C119.497 21.0467 119.904 21.14 120.357 21.14C120.824 21.14 121.224 21.04 121.557 20.84C121.904 20.64 122.177 20.3333 122.377 19.92H125.117C124.931 20.5067 124.631 21.0533 124.217 21.56C123.804 22.0667 123.277 22.4733 122.637 22.78C122.011 23.0867 121.271 23.24 120.417 23.24ZM117.957 17.1H122.737C122.724 16.4333 122.477 15.9067 121.997 15.52C121.531 15.1333 120.977 14.94 120.337 14.94C119.791 14.94 119.284 15.1133 118.817 15.46C118.351 15.7933 118.064 16.34 117.957 17.1ZM130.792 23.24C130.045 23.24 129.345 23.1067 128.692 22.84C128.039 22.56 127.499 22.1667 127.072 21.66C126.659 21.1533 126.432 20.56 126.392 19.88H128.952C129.019 20.3067 129.225 20.64 129.572 20.88C129.932 21.12 130.332 21.24 130.772 21.24C131.145 21.24 131.492 21.16 131.812 21C132.145 20.8267 132.312 20.56 132.312 20.2C132.312 19.92 132.192 19.7 131.952 19.54C131.712 19.38 131.432 19.2533 131.112 19.16C130.792 19.0667 130.499 18.9867 130.232 18.92C129.565 18.76 128.959 18.5733 128.412 18.36C127.865 18.1333 127.432 17.8267 127.112 17.44C126.792 17.04 126.632 16.5133 126.632 15.86C126.632 15.22 126.812 14.6733 127.172 14.22C127.545 13.7667 128.032 13.4267 128.632 13.2C129.245 12.96 129.905 12.84 130.612 12.84C131.719 12.84 132.652 13.12 133.412 13.68C134.172 14.24 134.585 15.0667 134.652 16.16H132.232C132.192 15.7333 132.012 15.4133 131.692 15.2C131.385 14.9733 130.999 14.86 130.532 14.86C130.159 14.86 129.825 14.9267 129.532 15.06C129.239 15.1933 129.092 15.4467 129.092 15.82C129.092 16.0867 129.212 16.3067 129.452 16.48C129.692 16.64 129.979 16.7733 130.312 16.88C130.645 16.9733 130.939 17.0533 131.192 17.12C131.885 17.2933 132.492 17.4933 133.012 17.72C133.545 17.9467 133.965 18.2533 134.272 18.64C134.579 19.0267 134.739 19.5467 134.752 20.2C134.752 20.8533 134.565 21.4067 134.192 21.86C133.832 22.3133 133.352 22.66 132.752 22.9C132.152 23.1267 131.499 23.24 130.792 23.24ZM140.265 23.24C139.518 23.24 138.818 23.1067 138.165 22.84C137.511 22.56 136.971 22.1667 136.545 21.66C136.131 21.1533 135.905 20.56 135.865 19.88H138.425C138.491 20.3067 138.698 20.64 139.045 20.88C139.405 21.12 139.805 21.24 140.245 21.24C140.618 21.24 140.965 21.16 141.285 21C141.618 20.8267 141.785 20.56 141.785 20.2C141.785 19.92 141.665 19.7 141.425 19.54C141.185 19.38 140.905 19.2533 140.585 19.16C140.265 19.0667 139.971 18.9867 139.705 18.92C139.038 18.76 138.431 18.5733 137.885 18.36C137.338 18.1333 136.905 17.8267 136.585 17.44C136.265 17.04 136.105 16.5133 136.105 15.86C136.105 15.22 136.285 14.6733 136.645 14.22C137.018 13.7667 137.505 13.4267 138.105 13.2C138.718 12.96 139.378 12.84 140.085 12.84C141.191 12.84 142.125 13.12 142.885 13.68C143.645 14.24 144.058 15.0667 144.125 16.16H141.705C141.665 15.7333 141.485 15.4133 141.165 15.2C140.858 14.9733 140.471 14.86 140.005 14.86C139.631 14.86 139.298 14.9267 139.005 15.06C138.711 15.1933 138.565 15.4467 138.565 15.82C138.565 16.0867 138.685 16.3067 138.925 16.48C139.165 16.64 139.451 16.7733 139.785 16.88C140.118 16.9733 140.411 17.0533 140.665 17.12C141.358 17.2933 141.965 17.4933 142.485 17.72C143.018 17.9467 143.438 18.2533 143.745 18.64C144.051 19.0267 144.211 19.5467 144.225 20.2C144.225 20.8533 144.038 21.4067 143.665 21.86C143.305 22.3133 142.825 22.66 142.225 22.9C141.625 23.1267 140.971 23.24 140.265 23.24Z" fill="#EFEEEA"/>
<defs>
<clipPath id="clip0_3_1779">
<rect width="26" height="26" fill="white" transform="translate(1.5 3)"/>
</clipPath>
</defs>
</svg>
