<svg width="112" height="32" viewBox="0 0 112 32" fill="none" xmlns="http://www.w3.org/2000/svg">
<g clip-path="url(#clip0_3_1792)">
<path d="M1.5 15.787C1.51042 15.7526 1.51875 15.7172 1.52344 15.6818C1.54271 15.3187 1.54688 14.9516 1.58594 14.588C1.64688 13.4109 2.03958 12.2755 2.71875 11.312C3.02491 10.8976 3.42403 10.5609 3.88401 10.3289C4.34399 10.0969 4.852 9.976 5.36719 9.97604H13.7969C13.9609 9.97604 13.9609 9.97604 13.9609 9.81198V9.22604C13.9609 9.10521 13.9255 9.07812 13.8125 9.07812H8.07448C7.97656 9.07812 7.94167 9.05052 7.94167 8.94896V6.08646C7.96042 5.67187 8.13333 5.27917 8.42604 4.98489C8.81477 4.57116 9.2988 4.25878 9.83594 4.075C10.4919 3.83915 11.1739 3.68316 11.8672 3.61042C12.8149 3.50221 13.7699 3.47347 14.7224 3.52448C15.7495 3.54375 16.7656 3.73229 17.7307 4.08281C18.3927 4.30607 18.9778 4.7124 19.4182 5.25469C19.7723 5.71034 19.9474 6.27985 19.9104 6.85573C19.887 7.3401 19.9104 7.82812 19.9104 8.31614V11.0193C19.9104 11.55 19.9104 12.0849 19.887 12.612C19.8832 13.1836 19.706 13.7405 19.3788 14.2093C19.0516 14.678 18.5899 15.0363 18.0547 15.237C17.5354 15.4496 16.9788 15.5557 16.4177 15.549H10.449C9.8178 15.5369 9.1957 15.7004 8.65208 16.0214C7.9569 16.4583 7.46165 17.1513 7.27344 17.9505C7.16017 18.3534 7.10355 18.7701 7.10521 19.1885V21.8948C7.10521 22.0745 7.10521 22.0708 6.92552 22.0745C6.27708 22.0745 5.62865 22.0943 4.9724 22.0745C4.33015 22.0486 3.71756 21.7972 3.24219 21.3646C2.68959 20.862 2.2776 20.224 2.04688 19.5135C1.81303 18.8677 1.66455 18.1942 1.60521 17.5099C1.56615 17.0724 1.55052 16.6349 1.52344 16.2016C1.51836 16.1531 1.51053 16.1049 1.5 16.0573V15.787Z" fill="#EFEEEA"/>
<path d="M9.41797 6.48851C9.41951 6.70521 9.48518 6.91661 9.6067 7.09605C9.72822 7.27548 9.90014 7.41492 10.1008 7.49678C10.3014 7.57865 10.5218 7.59927 10.7342 7.55604C10.9466 7.51282 11.1414 7.4077 11.2941 7.25392C11.4468 7.10014 11.5505 6.90459 11.5922 6.69193C11.6339 6.47927 11.6117 6.25902 11.5285 6.05896C11.4452 5.85889 11.3045 5.68796 11.1242 5.56772C10.9439 5.44748 10.7321 5.38331 10.5154 5.3833C10.2236 5.3855 9.94461 5.50289 9.73906 5.70991C9.53351 5.91692 9.4181 6.19678 9.41797 6.48851Z" fill="#EFEEEA"/>
<path d="M9.41797 6.48861C9.41797 6.34429 9.44639 6.20139 9.50162 6.06805C9.55685 5.93472 9.6378 5.81357 9.73985 5.71153C9.84189 5.60948 9.96304 5.52853 10.0964 5.4733C10.2297 5.41807 10.3726 5.38965 10.5169 5.38965C10.6612 5.38965 10.8041 5.41807 10.9375 5.4733C11.0708 5.52853 11.192 5.60948 11.294 5.71153C11.3961 5.81357 11.477 5.93472 11.5322 6.06805C11.5875 6.20139 11.6159 6.34429 11.6159 6.48861C11.6159 6.78007 11.5001 7.05959 11.294 7.26569C11.0879 7.47178 10.8084 7.58757 10.5169 7.58757C10.2255 7.58757 9.94594 7.47178 9.73985 7.26569C9.53375 7.05959 9.41797 6.78007 9.41797 6.48861Z" fill="#EFEEEA"/>
<path d="M26.5 16.2088C26.4896 16.2432 26.4812 16.2786 26.4765 16.3145C26.4573 16.6775 26.4531 17.0447 26.414 17.4083C26.353 18.5853 25.9603 19.721 25.2812 20.6843C24.9754 21.0993 24.5765 21.4367 24.1165 21.6694C23.6565 21.9021 23.1483 22.0235 22.6328 22.0239H14.2031C14.039 22.0239 14.039 22.0239 14.039 22.188V22.7739C14.039 22.8947 14.0745 22.9223 14.1875 22.9223H19.926C20.0234 22.9223 20.0588 22.9494 20.0588 23.051V25.9135C20.0397 26.3281 19.8671 26.7207 19.5745 27.015C19.1856 27.4288 18.7014 27.7412 18.164 27.9249C17.5094 28.1605 16.8288 28.3164 16.137 28.3895C15.189 28.4978 14.2338 28.5265 13.2812 28.4754C12.2547 28.4564 11.2384 28.2678 10.2734 27.9171C9.61145 27.6939 9.02633 27.2875 8.58591 26.7452C8.23182 26.2896 8.05675 25.7201 8.09373 25.1442C8.11716 24.6598 8.09373 24.1718 8.09373 23.6838V20.9807C8.09373 20.4499 8.09373 19.915 8.11716 19.388C8.12085 18.8164 8.29795 18.2594 8.62503 17.7907C8.95211 17.322 9.41376 16.9636 9.94893 16.763C10.4682 16.5504 11.0249 16.4443 11.5859 16.451H17.551C18.1822 16.4631 18.8043 16.2995 19.3479 15.9786C20.0439 15.5406 20.5393 14.846 20.7265 14.0452C20.8398 13.6424 20.8964 13.2257 20.8948 12.8072V10.101C20.8948 9.92128 20.8948 9.92545 21.0745 9.92128C21.7229 9.92128 22.3713 9.90201 23.0276 9.92128C23.67 9.94749 24.2826 10.1992 24.7578 10.6322C25.3104 11.1348 25.7223 11.7728 25.9531 12.4833C26.1861 13.1316 26.3332 13.8077 26.3906 14.4942C26.4297 14.9317 26.4453 15.3692 26.4729 15.8025C26.4781 15.8499 26.4859 15.8968 26.4963 15.9432C26.4989 16.0291 26.5 16.1176 26.5 16.2088Z" fill="#EFEEEA"/>
<path d="M18.5815 25.3708C18.5799 25.1541 18.5143 24.9427 18.3928 24.7633C18.2712 24.5839 18.0993 24.4444 17.8987 24.3626C17.698 24.2807 17.4776 24.2601 17.2652 24.3033C17.0529 24.3465 16.8581 24.4516 16.7054 24.6054C16.5527 24.7592 16.449 24.9548 16.4072 25.1674C16.3655 25.3801 16.3877 25.6003 16.471 25.8004C16.5543 26.0005 16.6949 26.1714 16.8752 26.2916C17.0555 26.4119 17.2674 26.476 17.4841 26.476C17.7758 26.4738 18.0548 26.3565 18.2604 26.1494C18.4659 25.9424 18.5814 25.6626 18.5815 25.3708Z" fill="#EFEEEA"/>
<path d="M18.5817 25.3708C18.5817 25.6623 18.4659 25.9418 18.2598 26.1479C18.0537 26.354 17.7742 26.4698 17.4827 26.4698C17.1913 26.4698 16.9118 26.354 16.7057 26.1479C16.4996 25.9418 16.3838 25.6623 16.3838 25.3708C16.3838 25.0793 16.4996 24.7998 16.7057 24.5937C16.9118 24.3876 17.1913 24.2719 17.4827 24.2719C17.7742 24.2719 18.0537 24.3876 18.2598 24.5937C18.4659 24.7998 18.5817 25.0793 18.5817 25.3708Z" fill="#EFEEEA"/>
</g>
<path d="M49.28 23V9H54.46C55.4333 9 56.2867 9.16667 57.02 9.5C57.7667 9.82 58.3533 10.2933 58.78 10.92C59.2067 11.5467 59.42 12.3067 59.42 13.2C59.42 14.0933 59.2067 14.86 58.78 15.5C58.3533 16.1267 57.7667 16.6067 57.02 16.94C56.2867 17.26 55.4333 17.42 54.46 17.42H51.84V23H49.28ZM51.84 15.24H54.4C55.2933 15.24 55.92 15.0533 56.28 14.68C56.64 14.2933 56.82 13.8 56.82 13.2C56.82 12.6133 56.64 12.1333 56.28 11.76C55.92 11.3733 55.2933 11.18 54.4 11.18H51.84V15.24ZM61.7927 27.4L63.9727 22.54L59.9527 13.08H62.8127L65.3727 19.84L67.9927 13.08H70.6927L64.4927 27.4H61.7927ZM75.4758 23C74.4091 23 73.6024 22.74 73.0558 22.22C72.5224 21.7 72.2558 20.92 72.2558 19.88V15.22H70.9758V13.08H72.2558V10.66H74.8158V13.08H77.0758V15.22H74.8158V19.9C74.8158 20.2733 74.9158 20.5267 75.1158 20.66C75.3158 20.7933 75.5758 20.86 75.8958 20.86H77.0758V23H75.4758ZM78.5875 23V9H81.1275V14.24C81.4742 13.7733 81.9342 13.4267 82.5075 13.2C83.0942 12.96 83.6808 12.84 84.2675 12.84C85.4142 12.84 86.3542 13.2133 87.0875 13.96C87.8208 14.6933 88.1875 15.76 88.1875 17.16V23H85.6475V17.5C85.6475 16.7533 85.4542 16.1533 85.0675 15.7C84.6942 15.2333 84.1408 15 83.4075 15C82.6742 15 82.1075 15.2333 81.7075 15.7C81.3208 16.1533 81.1275 16.7533 81.1275 17.5V23H78.5875ZM94.658 23.24C93.658 23.24 92.7646 23.0267 91.978 22.6C91.2046 22.16 90.598 21.5467 90.158 20.76C89.718 19.9733 89.498 19.0667 89.498 18.04C89.498 16.96 89.7313 16.0333 90.198 15.26C90.678 14.4733 91.3113 13.8733 92.098 13.46C92.898 13.0467 93.778 12.84 94.738 12.84C95.738 12.84 96.6313 13.06 97.418 13.5C98.2046 13.9267 98.8246 14.5267 99.278 15.3C99.7446 16.0733 99.978 16.9867 99.978 18.04C99.978 19.04 99.7513 19.9333 99.298 20.72C98.8446 21.5067 98.218 22.1267 97.418 22.58C96.6313 23.02 95.7113 23.24 94.658 23.24ZM94.698 21.02C95.2313 21.02 95.6913 20.8867 96.078 20.62C96.478 20.34 96.7913 19.9733 97.018 19.52C97.2446 19.0533 97.358 18.5467 97.358 18C97.358 17.3733 97.2313 16.84 96.978 16.4C96.738 15.96 96.418 15.6267 96.018 15.4C95.618 15.1733 95.178 15.06 94.698 15.06C94.178 15.06 93.718 15.1867 93.318 15.44C92.9313 15.6933 92.6246 16.0467 92.398 16.5C92.1846 16.94 92.078 17.4533 92.078 18.04C92.078 18.6267 92.1913 19.1467 92.418 19.6C92.658 20.0533 92.978 20.4067 93.378 20.66C93.778 20.9 94.218 21.02 94.698 21.02ZM101.459 23V13.08H103.999V14.24C104.345 13.7733 104.805 13.4267 105.379 13.2C105.965 12.96 106.552 12.84 107.139 12.84C108.285 12.84 109.225 13.2133 109.959 13.96C110.692 14.6933 111.059 15.76 111.059 17.16V23H108.519V17.5C108.519 16.7533 108.325 16.1533 107.939 15.7C107.565 15.2333 107.012 15 106.279 15C105.545 15 104.979 15.2333 104.579 15.7C104.192 16.1533 103.999 16.7533 103.999 17.5V23H101.459Z" fill="#EFEEEA"/>
<defs>
<clipPath id="clip0_3_1792">
<rect width="25" height="25" fill="white" transform="translate(1.5 3.5)"/>
</clipPath>
</defs>
</svg>
