<svg width="143" height="32" viewBox="0 0 143 32" fill="none" xmlns="http://www.w3.org/2000/svg">
<g clip-path="url(#clip0_3_1822)">
<path fill-rule="evenodd" clip-rule="evenodd" d="M25.484 2.26727C26.3237 2.26727 27.1006 2.72175 27.4945 3.45975C27.8711 4.16745 27.856 5.00067 27.4534 5.69322L27.4404 5.71703L23.9084 11.6253C23.508 12.2941 22.7874 12.7096 22.0169 12.7183H21.9909H17.9568L19.6341 16.5554L19.6406 16.5663L19.6514 16.5836C20.0453 17.2978 20.0366 18.1461 19.6276 18.8473L19.6146 18.8711L16.0826 24.7795C15.6822 25.4482 14.9615 25.8637 14.1911 25.8724H14.1651H9.21554L5.65757 29.6251L5.65108 29.6316C5.31562 29.9714 4.8633 30.1619 4.3915 30.1619C4.27463 30.1619 4.1556 30.1489 4.03873 30.1251C3.46305 30.0082 2.98476 29.6122 2.75535 29.0689L2.74886 29.0538L0.876811 24.7557L0.86599 24.7383L0.855169 24.721C0.855169 24.721 0.85084 24.7145 0.85084 24.7124C0.456952 23.9982 0.465609 23.1498 0.874647 22.4486L0.887633 22.4248L4.31359 16.6939L1.79011 10.9155L1.83556 10.8917V10.8874C1.72735 10.355 1.81392 9.80091 2.08877 9.31613L2.10392 9.29016L2.11691 9.26635L5.64891 3.35803C6.04929 2.68929 6.76998 2.27376 7.54044 2.26294H25.4861L25.484 2.26727ZM6.93879 25.8291H3.18603L4.28762 28.3786V28.3851C4.30926 28.4305 4.3374 28.4565 4.38284 28.4651C4.4218 28.4738 4.45426 28.4651 4.48456 28.437L4.48889 28.4327L6.93879 25.8291ZM17.6647 17.064H6.32198C6.309 17.064 6.29601 17.064 6.28519 17.064H6.28086L9.39085 24.1778H14.1629C14.3599 24.1778 14.5482 24.0718 14.6564 23.9051L14.665 23.8921L18.2014 17.9795C18.3074 17.8042 18.3182 17.5986 18.236 17.4146C18.1386 17.2025 17.9157 17.064 17.6668 17.064H17.6647ZM5.14249 18.5249L2.33549 23.2559C2.22295 23.4441 2.21646 23.6649 2.31818 23.8597L2.329 23.8792L2.33549 23.8878L2.34632 23.9073L2.36796 23.9398L2.39393 23.9722L2.41774 24.0003L2.42206 24.0047L2.43721 24.022L2.45236 24.035C2.54109 24.1151 2.64931 24.1648 2.7705 24.1756H2.79647L2.81162 24.1778H2.8311H7.59455L5.14249 18.5227V18.5249ZM4.40449 12.7291L5.63809 15.5577L5.6619 15.5491C5.87399 15.4777 6.09691 15.4387 6.32198 15.4365H6.35661H17.353L16.1735 12.7313H4.40665L4.40449 12.7291ZM25.4515 3.9164H14.0677L17.1799 11.0323H21.9498C22.1467 11.0323 22.335 10.9263 22.4432 10.7575L22.4519 10.7445L25.9882 4.83187C26.0943 4.65656 26.1051 4.45096 26.0229 4.267C25.9276 4.05924 25.7112 3.92073 25.4688 3.91424H25.4537L25.4515 3.9164ZM12.3255 3.9164H7.58156C7.38678 3.9164 7.19849 4.02028 7.09028 4.18909L7.08162 4.20208L3.55395 10.1147C3.4479 10.2922 3.43708 10.4956 3.52149 10.6796C3.61455 10.8873 3.83097 11.0259 4.0712 11.0302H4.08635H15.4269L12.3234 3.91424L12.3255 3.9164Z" fill="#EFEEEA"/>
</g>
<path d="M49.28 23V9H58.1V11.18H51.84V14.68H57.32V16.86H51.84V23H49.28ZM59.5445 23V9H62.1045V23H59.5445ZM67.7995 23.24C66.9462 23.24 66.2195 23.06 65.6195 22.7C65.0195 22.3267 64.5595 21.82 64.2395 21.18C63.9195 20.5267 63.7595 19.7867 63.7595 18.96V13.08H66.2995V18.58C66.2995 19.3133 66.4862 19.9133 66.8595 20.38C67.2462 20.8467 67.8062 21.08 68.5395 21.08C69.2995 21.08 69.8662 20.8533 70.2395 20.4C70.6129 19.9467 70.7995 19.34 70.7995 18.58V13.08H73.3595V23H70.7995V21.84C70.4662 22.2933 70.0262 22.64 69.4795 22.88C68.9462 23.12 68.3862 23.24 67.7995 23.24ZM79.05 23C77.9833 23 77.1767 22.74 76.63 22.22C76.0967 21.7 75.83 20.92 75.83 19.88V15.22H74.55V13.08H75.83V10.66H78.39V13.08H80.65V15.22H78.39V19.9C78.39 20.2733 78.49 20.5267 78.69 20.66C78.89 20.7933 79.15 20.86 79.47 20.86H80.65V23H79.05ZM86.0617 23C84.9951 23 84.1884 22.74 83.6417 22.22C83.1084 21.7 82.8417 20.92 82.8417 19.88V15.22H81.5617V13.08H82.8417V10.66H85.4017V13.08H87.6617V15.22H85.4017V19.9C85.4017 20.2733 85.5017 20.5267 85.7017 20.66C85.9017 20.7933 86.1617 20.86 86.4817 20.86H87.6617V23H86.0617ZM93.6595 23.24C92.6195 23.24 91.7195 23.0133 90.9595 22.56C90.2129 22.1067 89.6329 21.4867 89.2195 20.7C88.8062 19.9133 88.5995 19.0267 88.5995 18.04C88.5995 16.9867 88.8129 16.0733 89.2395 15.3C89.6662 14.5267 90.2595 13.9267 91.0195 13.5C91.7795 13.06 92.6595 12.84 93.6595 12.84C94.6462 12.84 95.5062 13.0533 96.2395 13.48C96.9862 13.9067 97.5662 14.4933 97.9795 15.24C98.4062 15.9867 98.6195 16.8467 98.6195 17.82C98.6195 17.9933 98.6129 18.1667 98.5995 18.34C98.5862 18.5 98.5662 18.6533 98.5395 18.8H91.1795C91.2195 19.2667 91.3395 19.68 91.5395 20.04C91.7529 20.3867 92.0329 20.66 92.3795 20.86C92.7395 21.0467 93.1462 21.14 93.5995 21.14C94.0662 21.14 94.4662 21.04 94.7995 20.84C95.1462 20.64 95.4195 20.3333 95.6195 19.92H98.3595C98.1729 20.5067 97.8729 21.0533 97.4595 21.56C97.0462 22.0667 96.5195 22.4733 95.8795 22.78C95.2529 23.0867 94.5129 23.24 93.6595 23.24ZM91.1995 17.1H95.9795C95.9662 16.4333 95.7195 15.9067 95.2395 15.52C94.7729 15.1333 94.2195 14.94 93.5795 14.94C93.0329 14.94 92.5262 15.1133 92.0595 15.46C91.5929 15.7933 91.3062 16.34 91.1995 17.1ZM99.9742 23V13.08H102.514V14.56C102.861 14 103.301 13.5733 103.834 13.28C104.368 12.9867 104.961 12.84 105.614 12.84V15.52H104.934C104.121 15.52 103.514 15.7133 103.114 16.1C102.714 16.4867 102.514 17.1333 102.514 18.04V23H99.9742ZM107.07 23V15.22H105.91V13.08H107.07V12.32C107.07 11.12 107.37 10.2667 107.97 9.76C108.583 9.25333 109.41 9 110.45 9H111.29V11.18H110.85C110.41 11.18 110.097 11.2667 109.91 11.44C109.723 11.6133 109.63 11.9067 109.63 12.32V13.08H111.41V15.22H109.63V23H107.07ZM112.97 23V9H115.53V23H112.97ZM122.099 23.24C121.099 23.24 120.206 23.0267 119.419 22.6C118.646 22.16 118.039 21.5467 117.599 20.76C117.159 19.9733 116.939 19.0667 116.939 18.04C116.939 16.96 117.173 16.0333 117.639 15.26C118.119 14.4733 118.753 13.8733 119.539 13.46C120.339 13.0467 121.219 12.84 122.179 12.84C123.179 12.84 124.073 13.06 124.859 13.5C125.646 13.9267 126.266 14.5267 126.719 15.3C127.186 16.0733 127.419 16.9867 127.419 18.04C127.419 19.04 127.193 19.9333 126.739 20.72C126.286 21.5067 125.659 22.1267 124.859 22.58C124.073 23.02 123.153 23.24 122.099 23.24ZM122.139 21.02C122.673 21.02 123.133 20.8867 123.519 20.62C123.919 20.34 124.233 19.9733 124.459 19.52C124.686 19.0533 124.799 18.5467 124.799 18C124.799 17.3733 124.673 16.84 124.419 16.4C124.179 15.96 123.859 15.6267 123.459 15.4C123.059 15.1733 122.619 15.06 122.139 15.06C121.619 15.06 121.159 15.1867 120.759 15.44C120.373 15.6933 120.066 16.0467 119.839 16.5C119.626 16.94 119.519 17.4533 119.519 18.04C119.519 18.6267 119.633 19.1467 119.859 19.6C120.099 20.0533 120.419 20.4067 120.819 20.66C121.219 20.9 121.659 21.02 122.139 21.02ZM130.548 23L127.588 13.08H130.168L131.948 20.62L133.868 13.08H136.568L138.448 20.6L140.228 13.08H142.668L139.728 22.98H136.988L135.148 16.06L133.308 23H130.548Z" fill="#EFEEEA"/>
<defs>
<clipPath id="clip0_3_1822">
<rect width="28" height="28" fill="white" transform="translate(0 2)"/>
</clipPath>
</defs>
</svg>
